# xmcd CD database file
#
# Track frame offsets:
#	150
#	13885
#	26588
#	39813
#	52922
#	65674
#	79417
#	93309
#	106597
#	119675
#	133404
#	147148
#	160433
#	174224
#	188382
#	200891
#	211968
#	222182
#	235846
#	249174
#	263193
#	275269
#	289926
#
# Disc length: 4044 seconds
#
# Revision: 0
# Processed by: cddbd v1.5.2PL0 Copyright (c) Steve Scherf et al.
# Submitted via: CDex 1.70beta2
#
DISCID=4c0fca17
DTITLE=Pee Wee Russell - Giants of Jazz 1
DYEAR=1900
DGENRE=Jazz
TTITLE0=Riverboat Shuffle: Red Nichols and His Five Pennies
TTITLE1=Ida, Sweet as Apple Cider: Red Nichols and His Five Pennies 
TTITLE2=Feelin’ No Pain: Red Nichols and His Five Pennies
TTITLE3=Oh Peter. Billy Banks and His Orchestra
TTITLE4=Bald‑Headed Mama: Harlem Hot Shots 
TTITLE5=I Would Do Anything for You: The Rhythmakers
TTITLE6=Tennessee Twilight: Eddie Condon and His Orchestra 
TTITLE7=Madame Dynamite: Eddie Condon and His Orchestra 
TTITLE8=Home Cooking: Eddie Condon and His Orchestra
TTITLE9=The Lady in Red: Louis Prima and His New Orleans Gang
TTITLE10=Chasing Shadows: Louis Prima and His New Orleans Gang 
TTITLE11=Cross Patch: Louis Prima and His New Orleans Gang 
TTITLE12=Love Is Just Around the Corner: Eddie Condon and His Windy City Seven 
TTITLE13=Love Is Just Around the Corner: Eddie Condon and His Windy City Seven
TTITLE14=Tappin’ the Commodore Till: Bud Freeman and His Gang 
TTITLE15=Baby, Won’t You Please Come Home?: Pee Wee Russell’s Rhythmakers 
TTITLE16=I’ve Found a New Baby: James P. Johnson Trio
TTITLE17=California, Here I Come: Eddie Condon and His Band
TTITLE18=Friars Point Shuffle: Eddie Condon and His Chicagoans 
TTITLE19=Someday, Sweetheart: Eddie Condon and His Chicagoans 
TTITLE20=As Long as I Live: Bud Freeman and His Summa Cum Laude Orchestra 
TTITLE21=Satanic Blues: Bud Freeman and His Summa Cum Laude Orchestra
TTITLE22=It’s All Right Here for You: Eddie Condon and His Band 
EXTD=
EXTT0=
EXTT1=
EXTT2=
EXTT3=
EXTT4=
EXTT5=
EXTT6=
EXTT7=
EXTT8=
EXTT9=
EXTT10=
EXTT11=
EXTT12=
EXTT13=
EXTT14=
EXTT15=
EXTT16=
EXTT17=
EXTT18=
EXTT19=
EXTT20=
EXTT21=
EXTT22=
PLAYORDER=
